<svg id="visual" viewBox="0 0 900 600" width="900" height="600" xmlns="http://www.w3.org/2000/svg" xmlns:xlink="http://www.w3.org/1999/xlink" version="1.1"><rect x="0" y="0" width="900" height="600" fill="#001220"></rect><path d="M0 308L21.5 308C43 308 86 308 128.8 312.8C171.7 317.7 214.3 327.3 257.2 324.8C300 322.3 343 307.7 385.8 302C428.7 296.3 471.3 299.7 514.2 301.5C557 303.3 600 303.7 642.8 296.7C685.7 289.7 728.3 275.3 771.2 271.7C814 268 857 275 878.5 278.5L900 282L900 601L878.5 601C857 601 814 601 771.2 601C728.3 601 685.7 601 642.8 601C600 601 557 601 514.2 601C471.3 601 428.7 601 385.8 601C343 601 300 601 257.2 601C214.3 601 171.7 601 128.8 601C86 601 43 601 21.5 601L0 601Z" fill="#ff6f61"></path><path d="M0 356L21.5 365C43 374 86 392 128.8 390C171.7 388 214.3 366 257.2 364.2C300 362.3 343 380.7 385.8 391C428.7 401.3 471.3 403.7 514.2 403.3C557 403 600 400 642.8 387.7C685.7 375.3 728.3 353.7 771.2 356.7C814 359.7 857 387.3 878.5 401.2L900 415L900 601L878.5 601C857 601 814 601 771.2 601C728.3 601 685.7 601 642.8 601C600 601 557 601 514.2 601C471.3 601 428.7 601 385.8 601C343 601 300 601 257.2 601C214.3 601 171.7 601 128.8 601C86 601 43 601 21.5 601L0 601Z" fill="#ff8352"></path><path d="M0 408L21.5 420.2C43 432.3 86 456.7 128.8 467.8C171.7 479 214.3 477 257.2 475.2C300 473.3 343 471.7 385.8 469.7C428.7 467.7 471.3 465.3 514.2 459.5C557 453.7 600 444.3 642.8 444.5C685.7 444.7 728.3 454.3 771.2 457.3C814 460.3 857 456.7 878.5 454.8L900 453L900 601L878.5 601C857 601 814 601 771.2 601C728.3 601 685.7 601 642.8 601C600 601 557 601 514.2 601C471.3 601 428.7 601 385.8 601C343 601 300 601 257.2 601C214.3 601 171.7 601 128.8 601C86 601 43 601 21.5 601L0 601Z" fill="#ff9945"></path><path d="M0 523L21.5 525.3C43 527.7 86 532.3 128.8 534.8C171.7 537.3 214.3 537.7 257.2 537.3C300 537 343 536 385.8 537.7C428.7 539.3 471.3 543.7 514.2 541C557 538.3 600 528.7 642.8 528.7C685.7 528.7 728.3 538.3 771.2 535.7C814 533 857 518 878.5 510.5L900 503L900 601L878.5 601C857 601 814 601 771.2 601C728.3 601 685.7 601 642.8 601C600 601 557 601 514.2 601C471.3 601 428.7 601 385.8 601C343 601 300 601 257.2 601C214.3 601 171.7 601 128.8 601C86 601 43 601 21.5 601L0 601Z" fill="#fcaf3c"></path></svg>